<mxfile host="app.diagrams.net" agent="Mozilla/5.0 (Windows NT 10.0; Win64; x64) AppleWebKit/537.36 (KHTML, like Gecko) Chrome/135.0.0.0 Safari/537.36 Edg/135.0.0.0" version="26.2.5">
  <diagram name="PÃ¡gina-1" id="KFer2k8s2xQWcp1HKqWv">
    <mxGraphModel dx="1420" dy="786" grid="1" gridSize="10" guides="1" tooltips="1" connect="1" arrows="1" fold="1" page="1" pageScale="1" pageWidth="827" pageHeight="1169" math="0" shadow="0">
      <root>
        <mxCell id="0" />
        <mxCell id="1" parent="0" />
        <mxCell id="TV0jjGZ3GE_v4DhTNu-a-1" value="&lt;font style=&quot;font-size: 22px;&quot;&gt;&lt;b&gt;&lt;i&gt;&lt;u&gt;CADENA DE CARACTERES&lt;/u&gt;&lt;/i&gt;&lt;/b&gt;&lt;/font&gt;" style="rounded=0;whiteSpace=wrap;html=1;" vertex="1" parent="1">
          <mxGeometry x="264" y="70" width="300" height="30" as="geometry" />
        </mxCell>
        <mxCell id="TV0jjGZ3GE_v4DhTNu-a-2" style="edgeStyle=orthogonalEdgeStyle;rounded=0;orthogonalLoop=1;jettySize=auto;html=1;exitX=0.5;exitY=1;exitDx=0;exitDy=0;" edge="1" parent="1" source="TV0jjGZ3GE_v4DhTNu-a-1" target="TV0jjGZ3GE_v4DhTNu-a-1">
          <mxGeometry relative="1" as="geometry" />
        </mxCell>
        <mxCell id="TV0jjGZ3GE_v4DhTNu-a-3" value="char texto[] = &quot;cadena de caracteres&quot;" style="rounded=1;whiteSpace=wrap;html=1;" vertex="1" parent="1">
          <mxGeometry x="120" y="160" width="120" height="60" as="geometry" />
        </mxCell>
        <mxCell id="TV0jjGZ3GE_v4DhTNu-a-4" style="edgeStyle=orthogonalEdgeStyle;rounded=0;orthogonalLoop=1;jettySize=auto;html=1;entryX=0.433;entryY=-0.033;entryDx=0;entryDy=0;entryPerimeter=0;" edge="1" parent="1" source="TV0jjGZ3GE_v4DhTNu-a-1" target="TV0jjGZ3GE_v4DhTNu-a-3">
          <mxGeometry relative="1" as="geometry">
            <Array as="points">
              <mxPoint x="414" y="130" />
              <mxPoint x="172" y="130" />
            </Array>
          </mxGeometry>
        </mxCell>
        <mxCell id="TV0jjGZ3GE_v4DhTNu-a-5" value="texto &amp;lt;-- 3525" style="rounded=1;whiteSpace=wrap;html=1;" vertex="1" parent="1">
          <mxGeometry x="120" y="254" width="120" height="60" as="geometry" />
        </mxCell>
        <mxCell id="TV0jjGZ3GE_v4DhTNu-a-7" style="edgeStyle=orthogonalEdgeStyle;rounded=0;orthogonalLoop=1;jettySize=auto;html=1;exitX=0.5;exitY=1;exitDx=0;exitDy=0;entryX=0.442;entryY=0;entryDx=0;entryDy=0;entryPerimeter=0;" edge="1" parent="1" source="TV0jjGZ3GE_v4DhTNu-a-3" target="TV0jjGZ3GE_v4DhTNu-a-5">
          <mxGeometry relative="1" as="geometry" />
        </mxCell>
        <mxCell id="TV0jjGZ3GE_v4DhTNu-a-21" value="" style="shape=table;startSize=0;container=1;collapsible=0;childLayout=tableLayout;fontSize=16;" vertex="1" parent="1">
          <mxGeometry x="9" y="400" width="798" height="112" as="geometry" />
        </mxCell>
        <mxCell id="TV0jjGZ3GE_v4DhTNu-a-22" value="" style="shape=tableRow;horizontal=0;startSize=0;swimlaneHead=0;swimlaneBody=0;strokeColor=inherit;top=0;left=0;bottom=0;right=0;collapsible=0;dropTarget=0;fillColor=none;points=[[0,0.5],[1,0.5]];portConstraint=eastwest;fontSize=16;" vertex="1" parent="TV0jjGZ3GE_v4DhTNu-a-21">
          <mxGeometry width="798" height="75" as="geometry" />
        </mxCell>
        <mxCell id="TV0jjGZ3GE_v4DhTNu-a-23" value="3525" style="shape=partialRectangle;html=1;whiteSpace=wrap;connectable=0;strokeColor=inherit;overflow=hidden;fillColor=none;top=0;left=0;bottom=0;right=0;pointerEvents=1;fontSize=16;" vertex="1" parent="TV0jjGZ3GE_v4DhTNu-a-22">
          <mxGeometry width="38" height="75" as="geometry">
            <mxRectangle width="38" height="75" as="alternateBounds" />
          </mxGeometry>
        </mxCell>
        <mxCell id="TV0jjGZ3GE_v4DhTNu-a-24" value="3526" style="shape=partialRectangle;html=1;whiteSpace=wrap;connectable=0;strokeColor=inherit;overflow=hidden;fillColor=none;top=0;left=0;bottom=0;right=0;pointerEvents=1;fontSize=16;" vertex="1" parent="TV0jjGZ3GE_v4DhTNu-a-22">
          <mxGeometry x="38" width="38" height="75" as="geometry">
            <mxRectangle width="38" height="75" as="alternateBounds" />
          </mxGeometry>
        </mxCell>
        <mxCell id="TV0jjGZ3GE_v4DhTNu-a-25" value="3527" style="shape=partialRectangle;html=1;whiteSpace=wrap;connectable=0;strokeColor=inherit;overflow=hidden;fillColor=none;top=0;left=0;bottom=0;right=0;pointerEvents=1;fontSize=16;" vertex="1" parent="TV0jjGZ3GE_v4DhTNu-a-22">
          <mxGeometry x="76" width="38" height="75" as="geometry">
            <mxRectangle width="38" height="75" as="alternateBounds" />
          </mxGeometry>
        </mxCell>
        <mxCell id="TV0jjGZ3GE_v4DhTNu-a-34" value="3528" style="shape=partialRectangle;html=1;whiteSpace=wrap;connectable=0;strokeColor=inherit;overflow=hidden;fillColor=none;top=0;left=0;bottom=0;right=0;pointerEvents=1;fontSize=16;" vertex="1" parent="TV0jjGZ3GE_v4DhTNu-a-22">
          <mxGeometry x="114" width="38" height="75" as="geometry">
            <mxRectangle width="38" height="75" as="alternateBounds" />
          </mxGeometry>
        </mxCell>
        <mxCell id="TV0jjGZ3GE_v4DhTNu-a-37" value="3529" style="shape=partialRectangle;html=1;whiteSpace=wrap;connectable=0;strokeColor=inherit;overflow=hidden;fillColor=none;top=0;left=0;bottom=0;right=0;pointerEvents=1;fontSize=16;" vertex="1" parent="TV0jjGZ3GE_v4DhTNu-a-22">
          <mxGeometry x="152" width="38" height="75" as="geometry">
            <mxRectangle width="38" height="75" as="alternateBounds" />
          </mxGeometry>
        </mxCell>
        <mxCell id="TV0jjGZ3GE_v4DhTNu-a-40" value="3530" style="shape=partialRectangle;html=1;whiteSpace=wrap;connectable=0;strokeColor=inherit;overflow=hidden;fillColor=none;top=0;left=0;bottom=0;right=0;pointerEvents=1;fontSize=16;" vertex="1" parent="TV0jjGZ3GE_v4DhTNu-a-22">
          <mxGeometry x="190" width="38" height="75" as="geometry">
            <mxRectangle width="38" height="75" as="alternateBounds" />
          </mxGeometry>
        </mxCell>
        <mxCell id="TV0jjGZ3GE_v4DhTNu-a-43" value="3531" style="shape=partialRectangle;html=1;whiteSpace=wrap;connectable=0;strokeColor=inherit;overflow=hidden;fillColor=none;top=0;left=0;bottom=0;right=0;pointerEvents=1;fontSize=16;" vertex="1" parent="TV0jjGZ3GE_v4DhTNu-a-22">
          <mxGeometry x="228" width="38" height="75" as="geometry">
            <mxRectangle width="38" height="75" as="alternateBounds" />
          </mxGeometry>
        </mxCell>
        <mxCell id="TV0jjGZ3GE_v4DhTNu-a-45" value="3532" style="shape=partialRectangle;html=1;whiteSpace=wrap;connectable=0;strokeColor=inherit;overflow=hidden;fillColor=none;top=0;left=0;bottom=0;right=0;pointerEvents=1;fontSize=16;" vertex="1" parent="TV0jjGZ3GE_v4DhTNu-a-22">
          <mxGeometry x="266" width="38" height="75" as="geometry">
            <mxRectangle width="38" height="75" as="alternateBounds" />
          </mxGeometry>
        </mxCell>
        <mxCell id="TV0jjGZ3GE_v4DhTNu-a-47" value="3533" style="shape=partialRectangle;html=1;whiteSpace=wrap;connectable=0;strokeColor=inherit;overflow=hidden;fillColor=none;top=0;left=0;bottom=0;right=0;pointerEvents=1;fontSize=16;" vertex="1" parent="TV0jjGZ3GE_v4DhTNu-a-22">
          <mxGeometry x="304" width="38" height="75" as="geometry">
            <mxRectangle width="38" height="75" as="alternateBounds" />
          </mxGeometry>
        </mxCell>
        <mxCell id="TV0jjGZ3GE_v4DhTNu-a-49" value="3534" style="shape=partialRectangle;html=1;whiteSpace=wrap;connectable=0;strokeColor=inherit;overflow=hidden;fillColor=none;top=0;left=0;bottom=0;right=0;pointerEvents=1;fontSize=16;" vertex="1" parent="TV0jjGZ3GE_v4DhTNu-a-22">
          <mxGeometry x="342" width="38" height="75" as="geometry">
            <mxRectangle width="38" height="75" as="alternateBounds" />
          </mxGeometry>
        </mxCell>
        <mxCell id="TV0jjGZ3GE_v4DhTNu-a-51" value="3535" style="shape=partialRectangle;html=1;whiteSpace=wrap;connectable=0;strokeColor=inherit;overflow=hidden;fillColor=none;top=0;left=0;bottom=0;right=0;pointerEvents=1;fontSize=16;" vertex="1" parent="TV0jjGZ3GE_v4DhTNu-a-22">
          <mxGeometry x="380" width="38" height="75" as="geometry">
            <mxRectangle width="38" height="75" as="alternateBounds" />
          </mxGeometry>
        </mxCell>
        <mxCell id="TV0jjGZ3GE_v4DhTNu-a-53" value="3536" style="shape=partialRectangle;html=1;whiteSpace=wrap;connectable=0;strokeColor=inherit;overflow=hidden;fillColor=none;top=0;left=0;bottom=0;right=0;pointerEvents=1;fontSize=16;" vertex="1" parent="TV0jjGZ3GE_v4DhTNu-a-22">
          <mxGeometry x="418" width="38" height="75" as="geometry">
            <mxRectangle width="38" height="75" as="alternateBounds" />
          </mxGeometry>
        </mxCell>
        <mxCell id="TV0jjGZ3GE_v4DhTNu-a-55" value="3537" style="shape=partialRectangle;html=1;whiteSpace=wrap;connectable=0;strokeColor=inherit;overflow=hidden;fillColor=none;top=0;left=0;bottom=0;right=0;pointerEvents=1;fontSize=16;" vertex="1" parent="TV0jjGZ3GE_v4DhTNu-a-22">
          <mxGeometry x="456" width="38" height="75" as="geometry">
            <mxRectangle width="38" height="75" as="alternateBounds" />
          </mxGeometry>
        </mxCell>
        <mxCell id="TV0jjGZ3GE_v4DhTNu-a-57" value="3538" style="shape=partialRectangle;html=1;whiteSpace=wrap;connectable=0;strokeColor=inherit;overflow=hidden;fillColor=none;top=0;left=0;bottom=0;right=0;pointerEvents=1;fontSize=16;" vertex="1" parent="TV0jjGZ3GE_v4DhTNu-a-22">
          <mxGeometry x="494" width="38" height="75" as="geometry">
            <mxRectangle width="38" height="75" as="alternateBounds" />
          </mxGeometry>
        </mxCell>
        <mxCell id="TV0jjGZ3GE_v4DhTNu-a-59" value="3539" style="shape=partialRectangle;html=1;whiteSpace=wrap;connectable=0;strokeColor=inherit;overflow=hidden;fillColor=none;top=0;left=0;bottom=0;right=0;pointerEvents=1;fontSize=16;" vertex="1" parent="TV0jjGZ3GE_v4DhTNu-a-22">
          <mxGeometry x="532" width="38" height="75" as="geometry">
            <mxRectangle width="38" height="75" as="alternateBounds" />
          </mxGeometry>
        </mxCell>
        <mxCell id="TV0jjGZ3GE_v4DhTNu-a-61" value="3540" style="shape=partialRectangle;html=1;whiteSpace=wrap;connectable=0;strokeColor=inherit;overflow=hidden;fillColor=none;top=0;left=0;bottom=0;right=0;pointerEvents=1;fontSize=16;" vertex="1" parent="TV0jjGZ3GE_v4DhTNu-a-22">
          <mxGeometry x="570" width="38" height="75" as="geometry">
            <mxRectangle width="38" height="75" as="alternateBounds" />
          </mxGeometry>
        </mxCell>
        <mxCell id="TV0jjGZ3GE_v4DhTNu-a-63" value="3541" style="shape=partialRectangle;html=1;whiteSpace=wrap;connectable=0;strokeColor=inherit;overflow=hidden;fillColor=none;top=0;left=0;bottom=0;right=0;pointerEvents=1;fontSize=16;" vertex="1" parent="TV0jjGZ3GE_v4DhTNu-a-22">
          <mxGeometry x="608" width="38" height="75" as="geometry">
            <mxRectangle width="38" height="75" as="alternateBounds" />
          </mxGeometry>
        </mxCell>
        <mxCell id="TV0jjGZ3GE_v4DhTNu-a-65" value="3542" style="shape=partialRectangle;html=1;whiteSpace=wrap;connectable=0;strokeColor=inherit;overflow=hidden;fillColor=none;top=0;left=0;bottom=0;right=0;pointerEvents=1;fontSize=16;" vertex="1" parent="TV0jjGZ3GE_v4DhTNu-a-22">
          <mxGeometry x="646" width="38" height="75" as="geometry">
            <mxRectangle width="38" height="75" as="alternateBounds" />
          </mxGeometry>
        </mxCell>
        <mxCell id="TV0jjGZ3GE_v4DhTNu-a-67" value="3543" style="shape=partialRectangle;html=1;whiteSpace=wrap;connectable=0;strokeColor=inherit;overflow=hidden;fillColor=none;top=0;left=0;bottom=0;right=0;pointerEvents=1;fontSize=16;" vertex="1" parent="TV0jjGZ3GE_v4DhTNu-a-22">
          <mxGeometry x="684" width="38" height="75" as="geometry">
            <mxRectangle width="38" height="75" as="alternateBounds" />
          </mxGeometry>
        </mxCell>
        <mxCell id="TV0jjGZ3GE_v4DhTNu-a-72" value="3544" style="shape=partialRectangle;html=1;whiteSpace=wrap;connectable=0;strokeColor=inherit;overflow=hidden;fillColor=none;top=0;left=0;bottom=0;right=0;pointerEvents=1;fontSize=16;" vertex="1" parent="TV0jjGZ3GE_v4DhTNu-a-22">
          <mxGeometry x="722" width="38" height="75" as="geometry">
            <mxRectangle width="38" height="75" as="alternateBounds" />
          </mxGeometry>
        </mxCell>
        <mxCell id="TV0jjGZ3GE_v4DhTNu-a-120" value="3545" style="shape=partialRectangle;html=1;whiteSpace=wrap;connectable=0;strokeColor=inherit;overflow=hidden;fillColor=none;top=0;left=0;bottom=0;right=0;pointerEvents=1;fontSize=16;" vertex="1" parent="TV0jjGZ3GE_v4DhTNu-a-22">
          <mxGeometry x="760" width="38" height="75" as="geometry">
            <mxRectangle width="38" height="75" as="alternateBounds" />
          </mxGeometry>
        </mxCell>
        <mxCell id="TV0jjGZ3GE_v4DhTNu-a-26" value="" style="shape=tableRow;horizontal=0;startSize=0;swimlaneHead=0;swimlaneBody=0;strokeColor=inherit;top=0;left=0;bottom=0;right=0;collapsible=0;dropTarget=0;fillColor=none;points=[[0,0.5],[1,0.5]];portConstraint=eastwest;fontSize=16;" vertex="1" parent="TV0jjGZ3GE_v4DhTNu-a-21">
          <mxGeometry y="75" width="798" height="37" as="geometry" />
        </mxCell>
        <mxCell id="TV0jjGZ3GE_v4DhTNu-a-27" value="c" style="shape=partialRectangle;html=1;whiteSpace=wrap;connectable=0;strokeColor=inherit;overflow=hidden;fillColor=none;top=0;left=0;bottom=0;right=0;pointerEvents=1;fontSize=16;" vertex="1" parent="TV0jjGZ3GE_v4DhTNu-a-26">
          <mxGeometry width="38" height="37" as="geometry">
            <mxRectangle width="38" height="37" as="alternateBounds" />
          </mxGeometry>
        </mxCell>
        <mxCell id="TV0jjGZ3GE_v4DhTNu-a-28" value="a" style="shape=partialRectangle;html=1;whiteSpace=wrap;connectable=0;strokeColor=inherit;overflow=hidden;fillColor=none;top=0;left=0;bottom=0;right=0;pointerEvents=1;fontSize=16;" vertex="1" parent="TV0jjGZ3GE_v4DhTNu-a-26">
          <mxGeometry x="38" width="38" height="37" as="geometry">
            <mxRectangle width="38" height="37" as="alternateBounds" />
          </mxGeometry>
        </mxCell>
        <mxCell id="TV0jjGZ3GE_v4DhTNu-a-29" value="d" style="shape=partialRectangle;html=1;whiteSpace=wrap;connectable=0;strokeColor=inherit;overflow=hidden;fillColor=none;top=0;left=0;bottom=0;right=0;pointerEvents=1;fontSize=16;" vertex="1" parent="TV0jjGZ3GE_v4DhTNu-a-26">
          <mxGeometry x="76" width="38" height="37" as="geometry">
            <mxRectangle width="38" height="37" as="alternateBounds" />
          </mxGeometry>
        </mxCell>
        <mxCell id="TV0jjGZ3GE_v4DhTNu-a-35" value="e" style="shape=partialRectangle;html=1;whiteSpace=wrap;connectable=0;strokeColor=inherit;overflow=hidden;fillColor=none;top=0;left=0;bottom=0;right=0;pointerEvents=1;fontSize=16;" vertex="1" parent="TV0jjGZ3GE_v4DhTNu-a-26">
          <mxGeometry x="114" width="38" height="37" as="geometry">
            <mxRectangle width="38" height="37" as="alternateBounds" />
          </mxGeometry>
        </mxCell>
        <mxCell id="TV0jjGZ3GE_v4DhTNu-a-38" value="n" style="shape=partialRectangle;html=1;whiteSpace=wrap;connectable=0;strokeColor=inherit;overflow=hidden;fillColor=none;top=0;left=0;bottom=0;right=0;pointerEvents=1;fontSize=16;" vertex="1" parent="TV0jjGZ3GE_v4DhTNu-a-26">
          <mxGeometry x="152" width="38" height="37" as="geometry">
            <mxRectangle width="38" height="37" as="alternateBounds" />
          </mxGeometry>
        </mxCell>
        <mxCell id="TV0jjGZ3GE_v4DhTNu-a-41" value="a" style="shape=partialRectangle;html=1;whiteSpace=wrap;connectable=0;strokeColor=inherit;overflow=hidden;fillColor=none;top=0;left=0;bottom=0;right=0;pointerEvents=1;fontSize=16;" vertex="1" parent="TV0jjGZ3GE_v4DhTNu-a-26">
          <mxGeometry x="190" width="38" height="37" as="geometry">
            <mxRectangle width="38" height="37" as="alternateBounds" />
          </mxGeometry>
        </mxCell>
        <mxCell id="TV0jjGZ3GE_v4DhTNu-a-44" value="_" style="shape=partialRectangle;html=1;whiteSpace=wrap;connectable=0;strokeColor=inherit;overflow=hidden;fillColor=none;top=0;left=0;bottom=0;right=0;pointerEvents=1;fontSize=16;" vertex="1" parent="TV0jjGZ3GE_v4DhTNu-a-26">
          <mxGeometry x="228" width="38" height="37" as="geometry">
            <mxRectangle width="38" height="37" as="alternateBounds" />
          </mxGeometry>
        </mxCell>
        <mxCell id="TV0jjGZ3GE_v4DhTNu-a-46" value="d" style="shape=partialRectangle;html=1;whiteSpace=wrap;connectable=0;strokeColor=inherit;overflow=hidden;fillColor=none;top=0;left=0;bottom=0;right=0;pointerEvents=1;fontSize=16;" vertex="1" parent="TV0jjGZ3GE_v4DhTNu-a-26">
          <mxGeometry x="266" width="38" height="37" as="geometry">
            <mxRectangle width="38" height="37" as="alternateBounds" />
          </mxGeometry>
        </mxCell>
        <mxCell id="TV0jjGZ3GE_v4DhTNu-a-48" value="e" style="shape=partialRectangle;html=1;whiteSpace=wrap;connectable=0;strokeColor=inherit;overflow=hidden;fillColor=none;top=0;left=0;bottom=0;right=0;pointerEvents=1;fontSize=16;" vertex="1" parent="TV0jjGZ3GE_v4DhTNu-a-26">
          <mxGeometry x="304" width="38" height="37" as="geometry">
            <mxRectangle width="38" height="37" as="alternateBounds" />
          </mxGeometry>
        </mxCell>
        <mxCell id="TV0jjGZ3GE_v4DhTNu-a-50" value="_" style="shape=partialRectangle;html=1;whiteSpace=wrap;connectable=0;strokeColor=inherit;overflow=hidden;fillColor=none;top=0;left=0;bottom=0;right=0;pointerEvents=1;fontSize=16;" vertex="1" parent="TV0jjGZ3GE_v4DhTNu-a-26">
          <mxGeometry x="342" width="38" height="37" as="geometry">
            <mxRectangle width="38" height="37" as="alternateBounds" />
          </mxGeometry>
        </mxCell>
        <mxCell id="TV0jjGZ3GE_v4DhTNu-a-52" value="c" style="shape=partialRectangle;html=1;whiteSpace=wrap;connectable=0;strokeColor=inherit;overflow=hidden;fillColor=none;top=0;left=0;bottom=0;right=0;pointerEvents=1;fontSize=16;" vertex="1" parent="TV0jjGZ3GE_v4DhTNu-a-26">
          <mxGeometry x="380" width="38" height="37" as="geometry">
            <mxRectangle width="38" height="37" as="alternateBounds" />
          </mxGeometry>
        </mxCell>
        <mxCell id="TV0jjGZ3GE_v4DhTNu-a-54" value="a" style="shape=partialRectangle;html=1;whiteSpace=wrap;connectable=0;strokeColor=inherit;overflow=hidden;fillColor=none;top=0;left=0;bottom=0;right=0;pointerEvents=1;fontSize=16;" vertex="1" parent="TV0jjGZ3GE_v4DhTNu-a-26">
          <mxGeometry x="418" width="38" height="37" as="geometry">
            <mxRectangle width="38" height="37" as="alternateBounds" />
          </mxGeometry>
        </mxCell>
        <mxCell id="TV0jjGZ3GE_v4DhTNu-a-56" value="r" style="shape=partialRectangle;html=1;whiteSpace=wrap;connectable=0;strokeColor=inherit;overflow=hidden;fillColor=none;top=0;left=0;bottom=0;right=0;pointerEvents=1;fontSize=16;" vertex="1" parent="TV0jjGZ3GE_v4DhTNu-a-26">
          <mxGeometry x="456" width="38" height="37" as="geometry">
            <mxRectangle width="38" height="37" as="alternateBounds" />
          </mxGeometry>
        </mxCell>
        <mxCell id="TV0jjGZ3GE_v4DhTNu-a-58" value="a" style="shape=partialRectangle;html=1;whiteSpace=wrap;connectable=0;strokeColor=inherit;overflow=hidden;fillColor=none;top=0;left=0;bottom=0;right=0;pointerEvents=1;fontSize=16;" vertex="1" parent="TV0jjGZ3GE_v4DhTNu-a-26">
          <mxGeometry x="494" width="38" height="37" as="geometry">
            <mxRectangle width="38" height="37" as="alternateBounds" />
          </mxGeometry>
        </mxCell>
        <mxCell id="TV0jjGZ3GE_v4DhTNu-a-60" value="c" style="shape=partialRectangle;html=1;whiteSpace=wrap;connectable=0;strokeColor=inherit;overflow=hidden;fillColor=none;top=0;left=0;bottom=0;right=0;pointerEvents=1;fontSize=16;" vertex="1" parent="TV0jjGZ3GE_v4DhTNu-a-26">
          <mxGeometry x="532" width="38" height="37" as="geometry">
            <mxRectangle width="38" height="37" as="alternateBounds" />
          </mxGeometry>
        </mxCell>
        <mxCell id="TV0jjGZ3GE_v4DhTNu-a-62" value="t" style="shape=partialRectangle;html=1;whiteSpace=wrap;connectable=0;strokeColor=inherit;overflow=hidden;fillColor=none;top=0;left=0;bottom=0;right=0;pointerEvents=1;fontSize=16;" vertex="1" parent="TV0jjGZ3GE_v4DhTNu-a-26">
          <mxGeometry x="570" width="38" height="37" as="geometry">
            <mxRectangle width="38" height="37" as="alternateBounds" />
          </mxGeometry>
        </mxCell>
        <mxCell id="TV0jjGZ3GE_v4DhTNu-a-64" value="e" style="shape=partialRectangle;html=1;whiteSpace=wrap;connectable=0;strokeColor=inherit;overflow=hidden;fillColor=none;top=0;left=0;bottom=0;right=0;pointerEvents=1;fontSize=16;" vertex="1" parent="TV0jjGZ3GE_v4DhTNu-a-26">
          <mxGeometry x="608" width="38" height="37" as="geometry">
            <mxRectangle width="38" height="37" as="alternateBounds" />
          </mxGeometry>
        </mxCell>
        <mxCell id="TV0jjGZ3GE_v4DhTNu-a-66" value="r" style="shape=partialRectangle;html=1;whiteSpace=wrap;connectable=0;strokeColor=inherit;overflow=hidden;fillColor=none;top=0;left=0;bottom=0;right=0;pointerEvents=1;fontSize=16;" vertex="1" parent="TV0jjGZ3GE_v4DhTNu-a-26">
          <mxGeometry x="646" width="38" height="37" as="geometry">
            <mxRectangle width="38" height="37" as="alternateBounds" />
          </mxGeometry>
        </mxCell>
        <mxCell id="TV0jjGZ3GE_v4DhTNu-a-68" value="e" style="shape=partialRectangle;html=1;whiteSpace=wrap;connectable=0;strokeColor=inherit;overflow=hidden;fillColor=none;top=0;left=0;bottom=0;right=0;pointerEvents=1;fontSize=16;" vertex="1" parent="TV0jjGZ3GE_v4DhTNu-a-26">
          <mxGeometry x="684" width="38" height="37" as="geometry">
            <mxRectangle width="38" height="37" as="alternateBounds" />
          </mxGeometry>
        </mxCell>
        <mxCell id="TV0jjGZ3GE_v4DhTNu-a-73" value="s" style="shape=partialRectangle;html=1;whiteSpace=wrap;connectable=0;strokeColor=inherit;overflow=hidden;fillColor=none;top=0;left=0;bottom=0;right=0;pointerEvents=1;fontSize=16;" vertex="1" parent="TV0jjGZ3GE_v4DhTNu-a-26">
          <mxGeometry x="722" width="38" height="37" as="geometry">
            <mxRectangle width="38" height="37" as="alternateBounds" />
          </mxGeometry>
        </mxCell>
        <mxCell id="TV0jjGZ3GE_v4DhTNu-a-121" value="\0" style="shape=partialRectangle;html=1;whiteSpace=wrap;connectable=0;strokeColor=inherit;overflow=hidden;fillColor=none;top=0;left=0;bottom=0;right=0;pointerEvents=1;fontSize=16;" vertex="1" parent="TV0jjGZ3GE_v4DhTNu-a-26">
          <mxGeometry x="760" width="38" height="37" as="geometry">
            <mxRectangle width="38" height="37" as="alternateBounds" />
          </mxGeometry>
        </mxCell>
        <mxCell id="TV0jjGZ3GE_v4DhTNu-a-123" style="edgeStyle=orthogonalEdgeStyle;rounded=0;orthogonalLoop=1;jettySize=auto;html=1;entryX=0.214;entryY=0.013;entryDx=0;entryDy=0;entryPerimeter=0;" edge="1" parent="1">
          <mxGeometry relative="1" as="geometry">
            <mxPoint x="173" y="314" as="sourcePoint" />
            <mxPoint x="172.77199999999993" y="400.9749999999999" as="targetPoint" />
          </mxGeometry>
        </mxCell>
      </root>
    </mxGraphModel>
  </diagram>
</mxfile>
